<svg width="31" height="25" viewBox="0 0 31 25" fill="none" xmlns="http://www.w3.org/2000/svg">
<path fill-rule="evenodd" clip-rule="evenodd" d="M0.138861 4.66659C0.298962 4.66867 0.460867 4.70932 0.610643 4.79253L15.5 13.0644L30.3894 4.79253C30.5391 4.70932 30.701 4.66867 30.8611 4.66659C30.8197 3.03758 30.6546 2.07868 29.9963 1.42037C29.1176 0.541687 27.7034 0.541687 24.875 0.541687H6.125C3.29657 0.541687 1.88236 0.541687 1.00368 1.42037C0.345372 2.07867 0.180269 3.03758 0.138861 4.66659ZM30.875 6.81065L16.4713 14.8127C15.8672 15.1483 15.1328 15.1483 14.5287 14.8127L0.125 6.81065V18.4584C0.125 21.2868 0.125 22.701 1.00368 23.5797C1.88236 24.4584 3.29657 24.4584 6.125 24.4584H24.875C27.7034 24.4584 29.1176 24.4584 29.9963 23.5797C30.875 22.701 30.875 21.2868 30.875 18.4584V6.81065Z" fill="white"/>
</svg>
