<svg width="48" height="48" viewBox="0 0 48 48" fill="none" xmlns="http://www.w3.org/2000/svg">
<path d="M47.7853 23.7436C47.7295 19.1626 46.3735 14.6931 43.8772 10.8614C41.381 7.02976 37.8486 3.9955 33.6959 2.11603C29.5429 0.236553 24.9428 -0.409862 20.437 0.252869C15.9314 0.91563 11.7077 2.85992 8.26357 5.85686C4.81937 8.85377 2.29809 12.7785 0.996637 17.1687C-0.304787 21.559 -0.332205 26.232 0.917668 30.6374C2.16754 35.0429 4.64262 38.9971 8.05143 42.0347C11.4602 45.0724 15.6608 47.0667 20.1584 47.7828V30.745H14.185V23.7436H20.1584V18.4249C20.0201 17.1883 20.1533 15.9361 20.5488 14.7569C20.9442 13.5776 21.592 12.5001 22.4465 11.6002C23.301 10.7004 24.3413 10.0002 25.4941 9.54916C26.647 9.09807 27.8844 8.90704 29.1185 8.98962C30.9099 9.01429 32.6971 9.17502 34.4647 9.4704V15.4802H31.478C30.9631 15.4148 30.4398 15.4668 29.9476 15.6321C29.4551 15.7975 29.0059 16.0721 28.6331 16.4355C28.2604 16.799 27.9737 17.2421 27.7942 17.732C27.6144 18.2221 27.5466 18.7464 27.5953 19.2663V23.8037H34.2257L33.1505 30.8051H27.6251V47.6326C33.2697 46.7344 38.4074 43.8305 42.1061 39.4475C45.8049 35.0646 47.8197 29.4932 47.7853 23.7436Z" fill="white"/>
</svg>
