<svg width="34" height="34" viewBox="0 0 34 34" fill="none" xmlns="http://www.w3.org/2000/svg">
<path d="M2.67962 5.53091L7.50342 0.707107C7.89394 0.316583 8.52711 0.316582 8.91763 0.707106L14.8718 6.66131C15.2624 7.05184 15.2624 7.685 14.8718 8.07553L10.9746 11.9728C10.424 12.5234 10.2875 13.3645 10.6357 14.0609C12.6487 18.0869 15.9131 21.3513 19.9391 23.3643C20.6355 23.7125 21.4766 23.576 22.0272 23.0254L25.9245 19.1282C26.315 18.7376 26.9482 18.7376 27.3387 19.1282L33.2929 25.0824C33.6834 25.4729 33.6834 26.1061 33.2929 26.4966L28.4691 31.3204C26.3577 33.4317 23.0152 33.6693 20.6265 31.8777L12.6812 25.9188C10.9377 24.6111 9.38885 23.0623 8.08121 21.3188L2.12226 13.3735C0.330722 10.9848 0.568267 7.64226 2.67962 5.53091Z" fill="white"/>
</svg>
