<svg width="41" height="41" viewBox="0 0 41 41" fill="none" xmlns="http://www.w3.org/2000/svg">
<path d="M20.5 11.1042V31.6042" stroke="white" stroke-linecap="round"/>
<path d="M35.0209 11.1042V31.6042" stroke="white" stroke-linecap="round"/>
<path d="M5.97919 11.1042V31.6042" stroke="white" stroke-linecap="round"/>
<path d="M35.0208 31.6042C35.0208 31.6042 33.3125 28.1875 27.3333 28.1875C21.3542 28.1875 20.5 31.6042 20.5 31.6042" stroke="white" stroke-linecap="round"/>
<path d="M5.97917 31.6042C5.97917 31.6042 7.6875 28.1875 13.6667 28.1875C19.6458 28.1875 20.5 31.6042 20.5 31.6042" stroke="white" stroke-linecap="round"/>
<path d="M35.0208 11.1042C35.0208 11.1042 33.3125 7.6875 27.3333 7.6875C21.3542 7.6875 20.5 11.1042 20.5 11.1042" stroke="white" stroke-linecap="round"/>
<path d="M5.97917 11.1042C5.97917 11.1042 7.6875 7.6875 13.6667 7.6875C19.6458 7.6875 20.5 11.1042 20.5 11.1042" stroke="white" stroke-linecap="round"/>
</svg>
