<svg width="56" height="55" viewBox="0 0 56 55" fill="none" xmlns="http://www.w3.org/2000/svg">
<path d="M55.0029 27.3299C54.9386 22.057 53.3779 16.9124 50.5045 12.502C47.6312 8.09155 43.5653 4.59899 38.7854 2.43564C34.0051 0.272282 28.7102 -0.471768 23.5239 0.291063C18.3377 1.05393 13.4761 3.29189 9.51171 6.74149C5.5473 10.1911 2.6452 14.7086 1.14717 19.7619C-0.350823 24.8153 -0.382382 30.1941 1.05627 35.265C2.49493 40.3359 5.34385 44.8873 9.26753 48.3837C13.1912 51.8802 18.0262 54.1758 23.2031 55V35.3888H16.3276V27.3299H23.2031V21.2078C23.044 19.7844 23.1973 18.3431 23.6525 16.9858C24.1076 15.6284 24.8533 14.3881 25.8369 13.3524C26.8204 12.3166 28.0178 11.5107 29.3448 10.9915C30.6718 10.4723 32.0961 10.2524 33.5166 10.3474C35.5786 10.3758 37.6358 10.5608 39.6703 10.9008V17.8184H36.2325C35.6398 17.7431 35.0375 17.8029 34.4709 17.9932C33.904 18.1836 33.387 18.4996 32.9579 18.918C32.5289 19.3363 32.1989 19.8464 31.9923 20.4103C31.7853 20.9744 31.7073 21.5779 31.7633 22.1763V27.399H39.3952L38.1576 35.458H31.7977V54.8271C38.2948 53.7932 44.2085 50.4507 48.4659 45.4057C52.7233 40.3608 55.0425 33.9479 55.0029 27.3299Z" fill="#C2C2C2" fill-opacity="0.5"/>
</svg>
