<svg width="74" height="89" viewBox="0 0 74 89" fill="none" xmlns="http://www.w3.org/2000/svg">
<path d="M-0.000488281 0L37.8086 0L73.3086 43V88.5L-0.000488281 0Z" fill="#FECC00"/>
<path d="M26.3075 7.21991C26.9496 5.61922 27.2706 4.81888 27.7922 4.70795C27.9293 4.67879 28.0711 4.67879 28.2082 4.70795C28.7298 4.81888 29.0508 5.61922 29.6929 7.21991C30.058 8.13019 30.2406 8.58533 30.5822 8.89489C30.678 8.98172 30.782 9.05906 30.8928 9.12581C31.2876 9.36378 31.7805 9.40792 32.7663 9.49621C34.4351 9.64566 35.2695 9.72039 35.5243 10.1961C35.577 10.2947 35.6129 10.4013 35.6304 10.5117C35.7149 11.0448 35.1015 11.6028 33.8747 12.7189L33.534 13.0289C32.9605 13.5507 32.6737 13.8116 32.5078 14.1372C32.4083 14.3325 32.3416 14.5429 32.3104 14.7598C32.2582 15.1215 32.3422 15.5 32.5102 16.257L32.5702 16.5274C32.8714 17.885 33.022 18.5637 32.834 18.8974C32.6651 19.1971 32.3541 19.3889 32.0105 19.4053C31.6279 19.4236 31.089 18.9844 30.011 18.106C29.3008 17.5273 28.9457 17.2379 28.5515 17.1249C28.1912 17.0216 27.8092 17.0216 27.4489 17.1249C27.0547 17.2379 26.6996 17.5273 25.9894 18.106C24.9114 18.9844 24.3724 19.4236 23.9899 19.4053C23.6463 19.3889 23.3353 19.1971 23.1664 18.8974C22.9784 18.5637 23.129 17.885 23.4302 16.5275L23.4902 16.257C23.6582 15.5 23.7422 15.1215 23.69 14.7598C23.6588 14.5429 23.5921 14.3325 23.4926 14.1372C23.3267 13.8116 23.0399 13.5507 22.4664 13.0289L22.1257 12.7189C20.8989 11.6028 20.2855 11.0448 20.37 10.5117C20.3875 10.4013 20.4234 10.2947 20.4761 10.1961C20.7309 9.72039 21.5653 9.64566 23.2341 9.49621C24.2199 9.40792 24.7128 9.36378 25.1076 9.12581C25.2183 9.05906 25.3224 8.98172 25.4182 8.89489C25.7598 8.58533 25.9424 8.13019 26.3075 7.21991Z" fill="#151515"/>
<path d="M42.3075 27.2199C42.9496 25.6192 43.2706 24.8189 43.7922 24.708C43.9293 24.6788 44.0711 24.6788 44.2082 24.708C44.7298 24.8189 45.0508 25.6192 45.6929 27.2199C46.058 28.1302 46.2406 28.5853 46.5822 28.8949C46.678 28.9817 46.782 29.0591 46.8928 29.1258C47.2876 29.3638 47.7805 29.4079 48.7663 29.4962C50.4351 29.6457 51.2695 29.7204 51.5243 30.1961C51.577 30.2947 51.6129 30.4013 51.6304 30.5117C51.7149 31.0448 51.1015 31.6028 49.8747 32.7189L49.534 33.0289C48.9605 33.5507 48.6737 33.8116 48.5078 34.1372C48.4083 34.3325 48.3416 34.5429 48.3104 34.7598C48.2582 35.1215 48.3422 35.5 48.5102 36.257L48.5702 36.5274C48.8714 37.885 49.022 38.5637 48.834 38.8974C48.6651 39.1971 48.3541 39.3889 48.0105 39.4053C47.6279 39.4236 47.089 38.9844 46.011 38.106C45.3008 37.5273 44.9457 37.2379 44.5515 37.1249C44.1912 37.0216 43.8092 37.0216 43.4489 37.1249C43.0547 37.2379 42.6996 37.5273 41.9894 38.106C40.9114 38.9844 40.3724 39.4236 39.9899 39.4053C39.6463 39.3889 39.3353 39.1971 39.1664 38.8974C38.9784 38.5637 39.129 37.885 39.4302 36.5275L39.4902 36.257C39.6582 35.5 39.7422 35.1215 39.69 34.7598C39.6588 34.5429 39.5921 34.3325 39.4926 34.1372C39.3267 33.8116 39.0399 33.5507 38.4664 33.0289L38.1257 32.7189C36.8989 31.6028 36.2855 31.0448 36.37 30.5117C36.3875 30.4013 36.4234 30.2947 36.4761 30.1961C36.7309 29.7204 37.5653 29.6457 39.2341 29.4962C40.2199 29.4079 40.7128 29.3638 41.1076 29.1258C41.2183 29.0591 41.3224 28.9817 41.4182 28.8949C41.7598 28.5853 41.9424 28.1302 42.3075 27.2199Z" fill="#151515"/>
<path d="M59.3075 48.2199C59.9496 46.6192 60.2706 45.8189 60.7922 45.708C60.9293 45.6788 61.0711 45.6788 61.2082 45.708C61.7298 45.8189 62.0508 46.6192 62.6929 48.2199C63.058 49.1302 63.2406 49.5853 63.5822 49.8949C63.678 49.9817 63.782 50.0591 63.8928 50.1258C64.2876 50.3638 64.7805 50.4079 65.7663 50.4962C67.4351 50.6457 68.2695 50.7204 68.5243 51.1961C68.577 51.2947 68.6129 51.4013 68.6304 51.5117C68.7149 52.0448 68.1015 52.6028 66.8747 53.7189L66.534 54.0289C65.9605 54.5507 65.6737 54.8116 65.5078 55.1372C65.4083 55.3325 65.3416 55.5429 65.3104 55.7598C65.2582 56.1215 65.3422 56.5 65.5102 57.257L65.5702 57.5275C65.8714 58.885 66.022 59.5637 65.834 59.8974C65.6651 60.1971 65.3541 60.3889 65.0105 60.4053C64.6279 60.4236 64.089 59.9844 63.011 59.106C62.3008 58.5273 61.9457 58.2379 61.5515 58.1249C61.1912 58.0216 60.8092 58.0216 60.4489 58.1249C60.0547 58.2379 59.6996 58.5273 58.9894 59.106C57.9114 59.9844 57.3724 60.4236 56.9899 60.4053C56.6463 60.3889 56.3353 60.1971 56.1664 59.8974C55.9784 59.5637 56.129 58.885 56.4302 57.5275L56.4902 57.257C56.6582 56.5 56.7422 56.1215 56.69 55.7598C56.6588 55.5429 56.5921 55.3325 56.4926 55.1372C56.3267 54.8116 56.0399 54.5507 55.4664 54.0289L55.1257 53.7189C53.8989 52.6028 53.2855 52.0448 53.37 51.5117C53.3875 51.4013 53.4234 51.2947 53.4761 51.1961C53.7309 50.7204 54.5653 50.6457 56.2341 50.4962C57.2199 50.4079 57.7128 50.3638 58.1076 50.1258C58.2183 50.0591 58.3224 49.9817 58.4182 49.8949C58.7598 49.5853 58.9424 49.1302 59.3075 48.2199Z" fill="#151515"/>
</svg>
