<svg width="74" height="90" viewBox="0 0 74 90" fill="none" xmlns="http://www.w3.org/2000/svg">
<path d="M73.9119 0L35.7919 0L0 43.3536L0 89.2278L73.9119 0Z" fill="#FECC00"/>
<path d="M47.3878 7.27928C46.7404 5.66543 46.4167 4.85851 45.8909 4.74667C45.7526 4.71726 45.6097 4.71726 45.4714 4.74667C44.9455 4.85851 44.6219 5.66543 43.9745 7.27928C43.6064 8.19705 43.4223 8.65593 43.0779 8.96804C42.9813 9.05559 42.8764 9.13355 42.7647 9.20085C42.3667 9.44079 41.8697 9.48529 40.8758 9.5743C39.1933 9.72498 38.3521 9.80032 38.0952 10.28C38.042 10.3793 38.0058 10.4869 37.9882 10.5982C37.903 11.1356 38.5215 11.6982 39.7583 12.8235L40.1018 13.136C40.6801 13.6621 40.9692 13.9252 41.1364 14.2535C41.2368 14.4504 41.304 14.6625 41.3355 14.8812C41.3881 15.2459 41.3034 15.6275 41.1341 16.3907L41.0736 16.6634C40.7699 18.0321 40.6181 18.7164 40.8076 19.0528C40.9779 19.3549 41.2915 19.5484 41.6379 19.5649C42.0236 19.5833 42.567 19.1405 43.6538 18.2549C44.3699 17.6714 44.7279 17.3797 45.1253 17.2657C45.4886 17.1616 45.8737 17.1616 46.2369 17.2657C46.6344 17.3797 46.9924 17.6714 47.7085 18.2549C48.7953 19.1405 49.3387 19.5833 49.7244 19.5649C50.0708 19.5484 50.3844 19.3549 50.5547 19.0528C50.7442 18.7164 50.5924 18.0321 50.2887 16.6634L50.2282 16.3907C50.0589 15.6275 49.9742 15.2459 50.0267 14.8812C50.0582 14.6625 50.1255 14.4504 50.2258 14.2535C50.3931 13.9252 50.6822 13.6621 51.2605 13.136L51.6039 12.8235C52.8408 11.6982 53.4593 11.1356 53.3741 10.5982C53.3564 10.4869 53.3203 10.3793 53.2671 10.28C53.0102 9.80032 52.1689 9.72498 50.4864 9.5743C49.4926 9.48529 48.9956 9.44079 48.5975 9.20085C48.4859 9.13355 48.381 9.05559 48.2844 8.96804C47.94 8.65593 47.7559 8.19705 47.3878 7.27928Z" fill="#151515"/>
<path d="M31.2559 27.4436C30.6086 25.8298 30.2849 25.0229 29.759 24.911C29.6208 24.8816 29.4778 24.8816 29.3396 24.911C28.8137 25.0229 28.49 25.8298 27.8427 27.4436C27.4745 28.3614 27.2905 28.8203 26.946 29.1324C26.8494 29.2199 26.7446 29.2979 26.6329 29.3652C26.2348 29.6051 25.7379 29.6497 24.744 29.7387C23.0615 29.8893 22.2203 29.9647 21.9634 30.4443C21.9102 30.5437 21.874 30.6512 21.8563 30.7625C21.7712 31.3 22.3896 31.8626 23.6265 32.9879L23.97 33.3004C24.5482 33.8265 24.8374 34.0895 25.0046 34.4178C25.1049 34.6147 25.1722 34.8268 25.2037 35.0456C25.2562 35.4102 25.1716 35.7918 25.0022 36.555L24.9417 36.8277C24.6381 38.1964 24.4862 38.8808 24.6758 39.2172C24.846 39.5193 25.1596 39.7127 25.5061 39.7293C25.8917 39.7477 26.4351 39.3049 27.522 38.4193C28.238 37.8358 28.5961 37.5441 28.9935 37.4301C29.3567 37.326 29.7419 37.326 30.1051 37.4301C30.5025 37.5441 30.8606 37.8358 31.5766 38.4193C32.6635 39.3049 33.2069 39.7477 33.5925 39.7293C33.939 39.7127 34.2526 39.5193 34.4228 39.2172C34.6124 38.8808 34.4605 38.1964 34.1569 36.8277L34.0964 36.555C33.927 35.7918 33.8424 35.4102 33.8949 35.0456C33.9264 34.8268 33.9937 34.6147 34.094 34.4178C34.2612 34.0895 34.5504 33.8265 35.1286 33.3004L35.4721 32.9879C36.709 31.8626 37.3274 31.3 37.2422 30.7625C37.2246 30.6512 37.1884 30.5437 37.1352 30.4443C36.8783 29.9647 36.0371 29.8893 34.3546 29.7387C33.3607 29.6497 32.8638 29.6051 32.4657 29.3652C32.354 29.2979 32.2492 29.2199 32.1526 29.1324C31.8081 28.8203 31.6241 28.3614 31.2559 27.4436Z" fill="#151515"/>
<path d="M14.1163 48.6164C13.4689 47.0026 13.1452 46.1956 12.6194 46.0838C12.4811 46.0544 12.3382 46.0544 12.1999 46.0838C11.6741 46.1956 11.3504 47.0026 10.703 48.6164C10.3349 49.5342 10.1508 49.9931 9.80639 50.3052C9.70979 50.3927 9.60492 50.4707 9.49326 50.538C9.09518 50.7779 8.59823 50.8224 7.60434 50.9114C5.92185 51.0621 5.08061 51.1375 4.82372 51.6171C4.77051 51.7164 4.73434 51.824 4.7167 51.9353C4.63153 52.4727 5.24997 53.0354 6.48684 54.1607L6.83032 54.4732C7.40858 54.9993 7.69771 55.2623 7.86495 55.5906C7.96527 55.7875 8.03253 55.9996 8.06405 56.2183C8.11659 56.583 8.03193 56.9646 7.86259 57.7278L7.80209 58.0005C7.49842 59.3692 7.34658 60.0535 7.53612 60.3899C7.70637 60.6921 8.01998 60.8855 8.3664 60.9021C8.75207 60.9205 9.29549 60.4777 10.3823 59.592C11.0984 59.0086 11.4564 58.7168 11.8539 58.6029C12.2171 58.4987 12.6022 58.4987 12.9654 58.6029C13.3629 58.7168 13.7209 59.0086 14.437 59.592C15.5238 60.4777 16.0672 60.9205 16.4529 60.9021C16.7993 60.8855 17.1129 60.6921 17.2832 60.3899C17.4727 60.0535 17.3209 59.3692 17.0172 58.0005L16.9567 57.7278C16.7874 56.9646 16.7027 56.583 16.7552 56.2183C16.7868 55.9996 16.854 55.7875 16.9543 55.5906C17.1216 55.2623 17.4107 54.9993 17.989 54.4732L18.3325 54.1607C19.5693 53.0354 20.1878 52.4727 20.1026 51.9353C20.085 51.824 20.0488 51.7164 19.9956 51.6171C19.7387 51.1375 18.8974 51.0621 17.215 50.9114C16.2211 50.8224 15.7241 50.7779 15.326 50.538C15.2144 50.4707 15.1095 50.3927 15.0129 50.3052C14.6685 49.9931 14.4844 49.5342 14.1163 48.6164Z" fill="#151515"/>
</svg>
