<svg width="117" height="117" viewBox="0 0 117 117" fill="none" xmlns="http://www.w3.org/2000/svg">
<path fill-rule="evenodd" clip-rule="evenodd" d="M77.35 16.25C77.35 6.5 67.717 0 60.19 0C54.951 0 54.5415 3.978 53.7355 11.83C53.378 15.275 52.949 19.461 52 24.375C49.491 37.388 40.82 54.015 32.526 58.9875V97.5C32.5 112.125 37.375 117 58.5 117H83.0245C97.1685 117 100.594 107.685 101.868 104.234L101.952 104C102.693 102.011 104.279 100.445 106.099 98.67C108.114 96.681 110.415 94.4255 112.125 91C114.146 86.9505 113.88 83.3495 113.639 80.145C113.49 78.2015 113.353 76.4075 113.75 74.75C114.166 72.995 114.699 71.6625 115.213 70.3885C116.142 68.0745 117 65.9295 117 61.75C117 52 112.138 45.513 101.952 45.513H74.75C74.75 45.513 77.35 26 77.35 16.25ZM9.75 52C7.16414 52 4.68419 53.0272 2.85571 54.8557C1.02723 56.6842 0 59.1641 0 61.75V107.25C5.44929e-08 109.836 1.02723 112.316 2.85571 114.144C4.68419 115.973 7.16414 117 9.75 117C12.3359 117 14.8158 115.973 16.6443 114.144C18.4728 112.316 19.5 109.836 19.5 107.25V61.75C19.5 59.1641 18.4728 56.6842 16.6443 54.8557C14.8158 53.0272 12.3359 52 9.75 52Z" fill="black" fill-opacity="0.3"/>
</svg>
