<svg width="31" height="25" viewBox="0 0 31 25" fill="none" xmlns="http://www.w3.org/2000/svg">
<path fill-rule="evenodd" clip-rule="evenodd" d="M0.138861 4.66689C0.298963 4.66897 0.460867 4.70963 0.610643 4.79283L15.5 13.0647L30.3894 4.79283C30.5391 4.70963 30.701 4.66898 30.8611 4.6669C30.8197 3.03789 30.6546 2.07898 29.9963 1.42067C29.1176 0.541992 27.7034 0.541992 24.875 0.541992H6.125C3.29657 0.541992 1.88236 0.541992 1.00368 1.42067C0.345371 2.07898 0.180269 3.03788 0.138861 4.66689ZM30.875 6.81095L16.4713 14.813C15.8672 15.1486 15.1328 15.1486 14.5287 14.813L0.125 6.81095V18.4587C0.125 21.2871 0.125 22.7013 1.00368 23.58C1.88236 24.4587 3.29657 24.4587 6.125 24.4587H24.875C27.7034 24.4587 29.1176 24.4587 29.9963 23.58C30.875 22.7013 30.875 21.2871 30.875 18.4587V6.81095Z" fill="#C2C2C2" fill-opacity="0.5"/>
</svg>
