<svg width="27" height="27" viewBox="0 0 27 27" fill="none" xmlns="http://www.w3.org/2000/svg">
<path d="M13.5 0C7.90847 0 3.375 4.53347 3.375 10.125C3.375 12.3268 4.09683 14.3471 5.29664 16.0017C5.31816 16.0414 5.32153 16.0857 5.346 16.1236L12.096 26.2486C12.409 26.7182 12.9364 27 13.5 27C14.0636 27 14.591 26.7182 14.904 26.2486L21.654 16.1236C21.6789 16.0857 21.6818 16.0414 21.7034 16.0017C22.9032 14.3471 23.625 12.3268 23.625 10.125C23.625 4.53347 19.0915 0 13.5 0ZM13.5 13.5C11.6362 13.5 10.125 11.9888 10.125 10.125C10.125 8.26116 11.6362 6.75 13.5 6.75C15.3638 6.75 16.875 8.26116 16.875 10.125C16.875 11.9888 15.3638 13.5 13.5 13.5Z" fill="#C2C2C2" fill-opacity="0.5"/>
</svg>
