<svg width="55" height="55" viewBox="0 0 55 55" fill="none" xmlns="http://www.w3.org/2000/svg">
<g clip-path="url(#clip0_236_109)">
<path d="M27.5 0C12.3115 0 0 12.3115 0 27.5C0 42.6885 12.3115 55 27.5 55C42.6885 55 55 42.6885 55 27.5C55 12.3115 42.6885 0 27.5 0ZM27.5 50.7031C14.6849 50.7031 4.29688 40.3151 4.29688 27.5C4.29688 14.6849 14.6849 4.29688 27.5 4.29688C40.3151 4.29688 50.7031 14.6849 50.7031 27.5C50.7031 40.3151 40.3151 50.7031 27.5 50.7031Z" fill="#C2C2C2" fill-opacity="0.5"/>
<path d="M35.1404 41.2467C35.753 41.2484 41.25 37.1831 41.25 36.6645C41.25 36.1458 35.0984 32.2703 34.5663 32.2703C34.0343 32.2703 32.2484 34.4121 31.7667 34.6503C31.2833 34.8887 28.2755 34.8031 24.9236 31.4512C21.57 28.1009 20.4253 24.2422 20.4253 23.6362C20.4253 23.0303 23.2216 21.1589 23.2988 20.7191C23.3761 20.2793 19.6129 13.75 19.002 13.75C18.3911 13.75 13.75 19.3896 13.75 19.8596C13.75 20.3296 14.1746 26.3754 21.8302 34.0292C29.4857 41.683 34.5278 41.2433 35.1404 41.2467Z" fill="#C2C2C2" fill-opacity="0.5"/>
</g>
<defs>
<clipPath id="clip0_236_109">
<rect width="55" height="55" fill="white"/>
</clipPath>
</defs>
</svg>
